<svg width="131" height="131" viewBox="0 0 131 131" fill="none" xmlns="http://www.w3.org/2000/svg">
<path d="M90.5599 2.49197e-07C91.886 2.55529e-07 93.1578 0.526785 94.0955 1.46447L129.536 36.9045C130.473 37.8422 131 39.114 131 40.4401V90.5599C131 91.886 130.473 93.1578 129.536 94.0955L94.0955 129.536C93.1578 130.473 91.886 131 90.5599 131H40.4401C39.114 131 37.8422 130.473 36.9045 129.536L1.46447 94.0955C0.526785 93.1578 3.5571e-09 91.886 9.88878e-09 90.5599L2.49197e-07 40.4401C2.55529e-07 39.114 0.526784 37.8422 1.46447 36.9045L36.9045 1.46447C37.8422 0.526785 39.114 3.5571e-09 40.4401 9.88878e-09L90.5599 2.49197e-07Z" fill="#5F1687"/>
<path d="M88.4178 14.1716L116.828 42.5822C117.579 43.3324 118 44.3498 118 45.4106V85.5894C118 86.6502 117.579 87.6676 116.828 88.4178L88.4178 116.828C87.6676 117.579 86.6502 118 85.5894 118H45.4106C44.3498 118 43.3324 117.579 42.5822 116.828L14.1716 88.4178C13.4214 87.6676 13 86.6502 13 85.5894L13 45.4106C13 44.3498 13.4214 43.3324 14.1716 42.5822L42.5822 14.1716C43.3324 13.4214 44.3498 13 45.4106 13L85.5894 13C86.6502 13 87.6676 13.4214 88.4178 14.1716Z" stroke="white" stroke-width="2"/>
<circle cx="65" cy="65" r="36" fill="black"/>
<path d="M66.8201 48.0294C66.3951 47.9146 65.9526 48.1466 65.8301 48.5449L62.6298 59.0427C62.5073 59.441 62.7548 59.8558 63.1799 59.9706C63.6049 60.0854 64.0474 59.8535 64.1699 59.4551L67.3702 48.9573C67.4927 48.559 67.2452 48.1442 66.8201 48.0294ZM68.8353 50.8436C68.5228 51.1365 68.5228 51.6122 68.8353 51.9051L71.068 54L68.8328 56.0949C68.5203 56.3878 68.5203 56.8635 68.8328 57.1564C69.1453 57.4493 69.6529 57.4493 69.9654 57.1564L72.7656 54.5319C73.0781 54.239 73.0781 53.7633 72.7656 53.4704L69.9654 50.846C69.6529 50.5531 69.1453 50.5531 68.8328 50.846L68.8353 50.8436ZM61.1672 50.8436C60.8547 50.5507 60.3471 50.5507 60.0346 50.8436L57.2344 53.4681C56.9219 53.761 56.9219 54.2367 57.2344 54.5296L60.0346 57.154C60.3471 57.4469 60.8547 57.4469 61.1672 57.154C61.4797 56.8611 61.4797 56.3854 61.1672 56.0925L58.932 54L61.1672 51.9051C61.4797 51.6122 61.4797 51.1365 61.1672 50.8436Z" fill="white"/>
<path d="M53.556 77.09C53.328 77.09 53.136 77.012 52.98 76.856C52.824 76.7 52.746 76.508 52.746 76.28V65.534C52.746 65.21 52.86 64.934 53.088 64.706C53.316 64.466 53.592 64.346 53.916 64.346H54.51C54.75 64.346 54.966 64.418 55.158 64.562C55.362 64.706 55.512 64.886 55.608 65.102L59.694 75.29L63.78 65.102C63.876 64.886 64.02 64.706 64.212 64.562C64.416 64.418 64.638 64.346 64.878 64.346H65.472C65.796 64.346 66.072 64.466 66.3 64.706C66.528 64.934 66.642 65.21 66.642 65.534V76.28C66.642 76.508 66.564 76.7 66.408 76.856C66.252 77.012 66.06 77.09 65.832 77.09C65.604 77.09 65.406 77.012 65.238 76.856C65.082 76.7 65.004 76.508 65.004 76.28V66.056L60.846 76.334C60.75 76.562 60.594 76.748 60.378 76.892C60.174 77.024 59.946 77.09 59.694 77.09C59.442 77.09 59.208 77.024 58.992 76.892C58.788 76.748 58.638 76.562 58.542 76.334L54.384 66.056V76.28C54.384 76.508 54.3 76.7 54.132 76.856C53.976 77.012 53.784 77.09 53.556 77.09ZM74.0908 77.18C72.5668 77.18 71.1388 76.892 69.8068 76.316C69.6628 76.256 69.5428 76.16 69.4468 76.028C69.3508 75.884 69.3028 75.734 69.3028 75.578C69.3028 75.374 69.3688 75.2 69.5008 75.056C69.6448 74.9 69.8248 74.822 70.0408 74.822C70.1608 74.822 70.2748 74.846 70.3828 74.894C71.4868 75.386 72.6688 75.632 73.9288 75.632C76.0288 75.632 77.0788 74.942 77.0788 73.562C77.0788 73.202 76.9408 72.902 76.6648 72.662C76.4008 72.422 76.0708 72.236 75.6748 72.104C75.2788 71.96 74.7148 71.792 73.9828 71.6C73.0108 71.348 72.2248 71.108 71.6248 70.88C71.0248 70.64 70.5088 70.286 70.0768 69.818C69.6448 69.35 69.4288 68.726 69.4288 67.946C69.4288 67.262 69.6088 66.644 69.9688 66.092C70.3288 65.528 70.8568 65.084 71.5528 64.76C72.2608 64.424 73.1068 64.256 74.0908 64.256C75.4108 64.256 76.6048 64.454 77.6728 64.85C78.0088 64.97 78.1768 65.21 78.1768 65.57C78.1768 65.762 78.1108 65.936 77.9788 66.092C77.8468 66.248 77.6728 66.326 77.4568 66.326C77.3848 66.326 77.2888 66.302 77.1688 66.254C76.2328 65.93 75.2668 65.768 74.2708 65.768C73.3228 65.768 72.5488 65.948 71.9488 66.308C71.3608 66.668 71.0668 67.172 71.0668 67.82C71.0668 68.252 71.2048 68.606 71.4808 68.882C71.7688 69.146 72.1228 69.356 72.5428 69.512C72.9748 69.656 73.5568 69.812 74.2888 69.98C75.2368 70.208 75.9988 70.436 76.5748 70.664C77.1628 70.892 77.6608 71.246 78.0688 71.726C78.4888 72.206 78.6988 72.854 78.6988 73.67C78.6988 74.342 78.5068 74.948 78.1228 75.488C77.7388 76.016 77.1988 76.43 76.5028 76.73C75.8068 77.03 75.0028 77.18 74.0908 77.18Z" fill="white"/>
</svg>
